<svg width="96" height="96" viewBox="0 0 96 96" fill="none" xmlns="http://www.w3.org/2000/svg">
<path d="M62.374 91.3678C61.2021 90.6619 60.4255 89.6594 60.2139 88.3322C60.0588 76.4312 60.1857 66.9724 63.2212 64.4029C64.8728 62.8783 66.7082 61.396 68.6421 60.0406C68.6421 61.3006 69.4847 63.0227 71.1127 64.0641C73.0187 65.3065 75.2918 66.1111 77.7903 66.6053L79.4423 63.0477L83.0283 64.9535C83.6262 63.1934 83.8582 61.2639 83.7762 59.8712C83.9034 59.8571 84.0306 59.8288 84.1433 59.7864C86.1164 59.2935 86.0448 57.6874 86.1341 55.8336C86.1723 54.8035 86.2869 53.7331 86.374 52.7982C86.5333 52.8357 88.1115 52.5462 89.1975 53.8853C92.7552 58.0641 93.4611 68.977 93.3339 79.6783C94.1939 88.5768 69.8087 96.0043 62.374 91.3678Z" fill="#1E54CD"/>
<path d="M54.9746 52.9941C54.5027 52.4292 54.074 51.7609 54.0857 51.0246C54.0988 50.2023 54.6558 49.3528 54.3011 48.6106C53.8699 47.7079 52.5471 47.812 51.6978 47.2827C50.9299 46.804 50.6297 45.8575 50.1475 45.0917C49.5316 44.1133 48.4224 43.3439 47.2778 43.5053C45.978 43.6889 45.1346 44.9254 44.4263 46.0302C42.2852 49.37 41.1158 48.036 40.1083 48.4314C39.5544 48.6485 39.3046 49.2748 38.9175 49.7264C38.4294 50.296 37.6553 50.6069 36.9088 50.5335C36.3263 50.4763 35.7041 50.2095 35.1875 50.4839C34.4375 50.8823 34.5881 51.9832 34.29 52.7785C33.8781 53.8775 32.4987 54.4619 32.3147 55.658C32.2233 56.2522 32.579 57.0057 32.822 57.5361C33.5334 59.0882 34.3391 59.0701 34.88 59.4294C35.6955 59.9719 35.81 61.1152 36.3607 61.9252C37.1376 63.0679 38.6938 63.4022 40.0708 63.2854C41.4477 63.1685 42.7812 62.702 44.162 62.6372C44.5101 62.621 44.8679 62.629 45.1963 62.5121C46.5368 62.0353 46.4985 60.2292 49.1238 61.2948C51.7986 62.3807 55.2142 64.3922 58.3368 61.9455C59.2374 61.2396 59.6512 60.4417 59.517 59.2464C59.3702 57.9416 56.5438 54.8738 54.9746 52.9941ZM29.5418 52.4748C29.2895 52.8306 29.2917 53.2778 28.8845 53.6743C28.6074 53.9451 28.349 53.9931 28.1049 54.1025C27.6606 54.3011 27.3121 54.6597 26.962 54.9973C26.323 55.6152 25.5403 56.3065 25.5912 57.2701C25.6114 57.6497 25.8489 58.5098 26.1878 58.2961C26.3259 58.209 26.6701 57.3873 26.5156 57.2556C26.4784 57.2239 26.426 57.2163 26.385 57.1894C26.3433 57.1618 26.3257 57.1115 26.324 57.0617L26.2864 57.142C26.255 57.0279 26.3078 56.8956 26.4095 56.8347C26.466 56.8011 26.5318 56.7889 26.5942 56.7679C26.9954 56.6317 27.2015 56.1433 27.6082 56.023C27.7444 55.9827 27.8926 55.9882 28.0235 55.9341C28.3724 55.79 28.4412 55.3431 28.5302 55.0514C28.857 53.9873 29.3318 54.2044 29.2454 54.602C29.2219 54.7095 29.1345 54.9275 29.2185 54.9994C29.3256 55.0889 29.7884 54.7441 30.0205 54.5825C30.7028 54.1085 30.9729 53.8275 30.9987 52.4419C31.0001 52.3645 31.0001 52.2817 30.9577 52.217C30.7856 51.9556 29.9388 51.9152 29.5418 52.4748ZM19.504 19.1602C19.5502 19.2076 19.6188 19.2441 19.6264 19.3097C19.6381 19.4109 19.4978 19.4638 19.4699 19.5615C19.4296 19.7027 19.7159 19.9898 19.1111 20.0906C19.0797 20.0765 18.9046 20.1152 18.8729 20.1297C18.7854 20.1702 18.8095 20.2054 18.8219 20.3031C18.8807 20.7684 18.9537 20.9273 19.3358 21.1308C20.2609 21.6271 20.2289 20.8344 20.5711 20.378C21.0505 19.7373 21.3819 19.1494 21.0747 18.4062C20.4969 17.0216 19.0656 18.7096 19.504 19.1602Z" fill="#090A15"/>
<path d="M87.1081 52.4877C87.1787 51.7394 87.207 50.977 87.1787 50.2287C87.1646 49.6924 87.1081 49.1699 87.0657 48.6336C86.8092 46.1232 86.9504 46.0753 87.1505 43.8477C87.3442 41.9312 87.187 40.3943 86.6927 39.1659C87.2404 38.7697 87.7364 38.3337 88.1748 37.85C88.5873 37.3473 88.5798 36.3067 87.5668 36.0108C86.4211 35.6923 85.1514 35.116 83.792 34.2944C81.8569 33.1651 81.0887 32.2877 79.2817 31.5828C76.22 20.9113 68.8877 11.7409 57.8139 6.69015C46.9152 1.77706 34.5622 2.07365 23.9033 7.52287C9.72893 14.8318 2.01315 29.6055 2.68447 43.8899C3.05154 52.9394 6.59508 61.65 12.6516 68.3983C16.2941 72.4499 20.6703 75.6405 25.6539 77.8995C36.1465 82.6196 47.9939 82.4925 58.3361 77.6172C58.2517 80.7371 58.2658 84.2383 58.3223 87.9934V88.05C59.1078 92.9222 66.3941 93.1863 71.3529 92.5253C81.6585 91.1982 92.7269 85.4382 92.134 79.3395C92.2191 72.61 92.2401 56.681 87.1081 52.4877ZM86.0803 39.5666C86.4914 40.6714 86.6231 42.052 86.4446 43.7771C86.257 46.0139 86.0943 45.9997 86.3598 48.7041C86.4022 49.2123 86.4587 49.7348 86.4728 50.257C86.5547 52.0574 86.2135 53.6896 86.134 55.8336C86.1155 56.5991 86.1269 57.4734 85.8938 58.2054C85.1209 60.6056 81.6857 60.0494 79.2868 59.2501C77.2964 58.6288 75.3479 57.8666 73.4843 56.9629C73.0023 56.7521 71.8064 56.1448 71.0013 55.5573L71.5328 53.5338C71.6293 53.1767 71.5755 52.8045 71.3839 52.4915L69.1642 48.7829C68.9547 48.4341 68.8982 48.0273 69.0057 47.6372C69.3737 46.2895 71.2897 46.1519 71.8044 47.4993L72.4758 49.2599C72.9372 50.3993 74.69 49.9262 74.4322 48.6367C73.8159 46.1785 74.2971 43.9685 75.8619 42.066C79.3025 41.9025 83.1658 41.3816 86.0803 39.5666ZM70.1951 56.4971L70.321 55.9391C71.0309 56.5135 72.0981 57.0673 72.7364 57.3865C75.3676 58.6929 78.19 59.7195 80.134 60.2383C79.8379 61.0752 79.3743 62.2862 79.2313 62.632C74.1244 61.6702 71.1675 59.6675 70.1951 56.4971ZM78.9339 63.3017C78.6565 63.8969 77.505 66.368 77.5787 66.21C75.0515 65.6735 72.9904 64.8689 71.3105 63.7677C69.0625 62.3052 68.2011 59.4618 69.7009 57.203C71.1123 60.9209 75.027 62.5614 78.9339 63.3017ZM80.995 60.4218C81.6901 60.5639 82.8723 60.7225 83.4373 60.6195C83.4232 61.9158 83.2119 63.198 82.818 64.4382L79.9141 62.8853C80.2771 62.1689 80.6465 61.355 80.995 60.4218ZM34.3223 16.0217C34.4916 15.6405 34.2093 15.1607 34.4209 14.8078C34.5318 14.6082 34.6999 14.5576 36.0588 13.5935C36.1291 13.5511 36.1997 13.4948 36.2845 13.4948C36.5244 13.4665 36.6799 13.7629 36.9056 13.8053C36.8915 14.0878 36.835 14.3701 36.7647 14.6382C37.2567 14.9339 37.8848 13.7073 36.948 12.8029C36.9198 12.7748 36.8915 12.7465 36.8774 12.7041C36.8632 12.6336 36.9339 12.563 37.0046 12.5347C37.0752 12.5206 37.1459 12.5347 37.2303 12.5488C37.9382 12.5977 38.6175 11.4377 38.8823 10.7983C39.019 10.4565 39.1639 10.5148 39.4893 10.4877C40.1104 10.4029 40.3079 9.71117 40.2941 9.18883C40.2799 8.99116 40.2234 8.68061 40.4209 8.5536C40.647 8.39833 41.0282 8.56756 41.1974 8.73714C41.4797 9.01942 41.5504 9.45715 41.508 9.86662C41.3584 11.0986 40.3855 11.4836 39.9129 12.0689C39.6302 12.436 39.4893 13.0007 39.7998 13.3395C39.8705 13.4241 39.9694 13.4948 39.9832 13.5935C40.0774 14.0532 38.7788 15.4734 37.2303 15.0759C37.202 15.0759 37.1741 15.0618 37.1314 15.0759C37.1035 15.0759 37.0752 15.1183 37.0611 15.1325C35.6035 17.0209 36.1951 19.4167 35.1974 19.9323C35.0137 19.4665 35.2822 18.9583 35.254 18.464C35.1935 17.679 34.6027 17.4972 34.5481 17.3065C34.4774 17.1229 34.647 16.8972 34.5481 16.7276C34.4774 16.6006 34.2658 16.5725 34.1952 16.4312C34.1386 16.3042 34.2658 16.163 34.3223 16.0217ZM25.9362 77.2501C21.1808 75.1059 16.9793 72.0587 13.4643 68.2387C15.1842 68.4252 16.9021 68.6551 18.5841 69.0635C19.6243 69.3162 20.7213 69.6347 21.7409 69.3107C20.1254 69.0018 18.5961 68.2467 17.3653 67.1548C20.252 66.4191 22.0154 67.7842 22.9476 67.9192C24.6475 68.1639 25.8976 66.3534 26.4277 64.7183C26.6879 63.9042 26.8158 63.6568 27.8291 63.1176C32.2651 60.7575 32.9024 60.5578 33.1849 59.7182C33.3959 59.0888 32.8061 58.2309 32.1895 58.4775C31.9583 59.0576 31.5877 59.5841 31.119 59.9948C30.399 59.5033 29.6362 59.0767 28.8418 58.7221C28.92 58.9661 28.9955 59.2105 29.073 59.4561C28.2737 60.5776 26.2705 60.4458 25.6232 59.2294C25.0835 59.5906 24.9232 60.3427 25.0728 60.9728C25.2217 61.6052 25.6153 62.1464 26 62.6682C24.5803 63.6088 22.3975 63.0349 21.6227 61.5173C20.6659 59.6423 21.8312 57.426 22.9651 55.6514C23.8809 56.1267 25.1472 55.1565 24.9287 54.1495C23.9302 53.9953 22.7115 53.633 22.5457 52.6361C22.4233 51.8921 22.9848 51.0554 22.5795 50.418C22.3778 50.1033 21.998 49.9582 21.7226 49.7054C20.7255 48.7873 21.4565 46.9727 20.6669 45.8711C20.4687 45.5935 20.1826 45.3824 20.0041 45.0913C19.8235 44.7988 19.7918 44.3637 20.0679 44.1605C20.2312 44.039 20.4535 44.0376 20.6414 43.9608C21.1698 43.7431 21.2697 43.0303 21.1718 42.4675C21.0719 41.904 20.8578 41.3173 21.0546 40.7793C21.2925 40.1248 22.0721 39.7677 22.261 39.0949C22.5519 38.0433 21.2328 37.1813 21.1618 36.0925C18.8298 36.1537 16.4967 36.2166 14.1637 36.2796C13.6646 35.4225 13.321 34.4763 13.1534 33.4989C12.4452 33.0456 11.5252 33.4237 10.7373 33.7212C9.21977 34.2878 7.96445 33.843 8.3491 32.1593C8.84529 30.0023 10.6515 28.5826 11.5866 28.5298C12.6543 28.4782 13.2024 29.5538 15.2159 30.5188C15.6968 30.7491 16.2755 30.5313 16.495 30.0453C17.0595 28.5748 17.826 27.7706 17.5621 26.3573C17.2264 24.555 17.2771 22.6821 17.7396 20.9077C18.1817 19.2185 17.4761 19.3551 16.9917 18.7663C16.7063 18.4134 16.6891 17.9205 16.5957 17.4752C16.3809 16.4408 15.6585 15.5638 14.7372 15.0423C17.4456 12.3472 20.5687 10.0703 24.0112 8.28011C23.7481 9.58292 23.746 9.13062 24.6375 11.8712C24.7841 12.4084 24.9056 12.4414 25.7811 13.3678C26.5011 13.029 26.4446 11.8006 27.1929 11.5607C27.1363 12.0265 27.3338 12.5206 27.7009 12.817C27.8422 12.9159 27.9832 12.9866 28.0962 13.0994C28.3772 13.3801 28.8485 14.6742 28.6608 15.443C28.534 16.0217 27.8987 16.516 27.348 16.29C27.1646 16.2054 26.9668 16.05 26.7693 16.1065C26.6138 16.1489 26.5152 16.29 26.3739 16.3183C25.9817 16.3917 25.756 15.6807 25.0893 16.2054C24.8215 16.4315 24.3386 17.196 24.3976 17.5889C24.4962 18.097 25.1741 18.3372 25.3151 18.8311C25.4161 19.3025 25.123 19.6455 26.2185 20.2146C26.4587 20.3277 26.7269 20.4407 26.9668 20.3418C27.5473 20.116 27.2689 19.3522 27.461 18.8311C27.5599 18.563 27.8422 18.3372 28.0962 18.4499C28.3644 18.5488 28.4492 18.9159 28.7315 18.9866C28.9152 19.0431 29.0985 18.93 29.2681 18.8452C29.8892 18.5488 30.6516 18.5064 31.301 18.7465C31.1317 20.4037 29.3377 21.9832 31.4843 23.4476C32.9173 24.5931 33.1921 23.0554 33.9694 22.6006C34.0538 22.5442 34.1528 22.5018 34.2375 22.5301C34.5764 22.6289 34.3223 23.2784 34.647 23.4052C34.8388 25.3309 35.2026 25.2665 35.7058 25.8195C36.3411 26.4688 36.4255 27.4713 36.694 28.3323C37.1596 29.8853 38.3598 31.1982 39.8422 31.8195C40.5764 32.1159 41.3812 32.2711 42.1574 32.4125C43.9804 32.7161 44.4488 32.6992 46.1245 32.2146C47.5607 31.7521 48.2813 31.4424 49.1035 28.77C50.3723 24.6586 50.3338 24.7165 50.5997 24.3794C50.9106 23.9701 51.4327 23.7582 51.927 23.5748C54.6735 25.7398 55.8087 25.7119 57.4327 25.5087C61.5921 25.0518 61.6919 26.3353 63.0515 27.0336C63.4327 27.2312 63.8563 27.33 64.2799 27.4289C66.7431 27.9601 67.6171 28.2531 68.6562 28.2335C69.4447 28.2335 71.5397 27.8675 72.3976 27.3865C73.2444 26.9346 73.8517 26.13 74.3456 25.2971C74.6562 24.7889 74.9388 24.21 74.7975 23.6313C74.4504 22.1139 70.9183 20.9989 70.0397 19.8195C69.5317 19.1418 69.4045 18.2383 68.995 17.5041C68.8399 17.2219 68.6421 16.9535 68.5152 16.6571C68.3739 16.3042 68.3456 15.923 68.2329 15.57C67.7673 13.9806 66.0726 13.1096 65.0179 11.8393C71.4349 16.7188 76.1272 23.5207 78.4631 31.295C72.8632 29.637 67.6384 31.6028 65.934 36.0811C64.1776 40.1661 63.9901 43.5466 65.2984 47.3628C65.9623 49.9037 67.6649 53.358 69.6726 55.3498C69.6874 55.3647 69.7002 55.3812 69.715 55.396L69.5175 56.2994C69.3028 56.5322 68.6986 57.2569 68.4094 58.384C65.8909 60.0448 63.5137 61.9103 61.4423 63.796C59.3529 65.5607 58.5905 70.3183 58.3644 76.8406C48.4962 81.5842 36.6799 82.0924 25.9362 77.2501ZM91.4281 79.3678C91.9927 85.1136 81.249 90.5347 71.2681 91.8336C67.5271 92.3135 64.4916 92.1441 62.3739 91.3678C60.4538 90.6901 59.2964 89.5324 59.0282 87.9512C58.9867 85.1547 58.9375 79.2752 59.0844 76.4877C59.3246 70.417 60.0446 65.8995 61.9079 64.3183C63.8067 62.5669 65.9761 60.8587 68.2743 59.3028C68.132 61.4399 69.254 63.2827 70.9152 64.3605C72.7343 65.5501 74.9312 66.391 77.6507 66.9417C78.3928 67.4967 79.2089 67.8544 80.0296 67.9851C80.8609 68.2691 82.1514 73.3853 81.3738 83.9267C81.3669 84.0122 81.3917 84.0977 81.4441 84.1652L82.9441 86.1491C83.0103 86.2387 83.1151 86.2897 83.2254 86.2897C83.2364 86.2897 83.2488 86.2897 83.2612 86.2884C83.3825 86.276 83.4901 86.2001 83.5438 86.0898L84.837 83.3918C84.8605 83.3421 84.8715 83.2884 84.8715 83.2346C84.8012 77.6303 83.8982 72.2121 82.1872 67.1289C83.5414 65.7217 84.1252 62.4958 84.1432 60.5347C85.2303 60.3089 86.1482 59.7159 86.5576 58.4312C86.8289 57.6011 86.8201 56.7193 86.8399 55.8617C86.876 54.905 87.0158 53.4846 87.0374 53.3771C90.1715 56.4548 91.6115 64.9677 91.4281 79.3678ZM85.8907 25.6635C85.9734 25.7441 86.0799 25.789 86.194 25.789C86.3077 25.789 86.416 25.7448 86.4956 25.6635L88.3175 23.8424C88.4843 23.6765 88.4843 23.4056 88.3175 23.2389L86.4873 21.4092C86.406 21.3288 86.2991 21.284 86.1854 21.284C86.0716 21.284 85.9648 21.3288 85.8838 21.4099L84.0633 23.2305C83.8968 23.3969 83.8968 23.6673 84.0633 23.834L85.8907 25.6635Z" fill="#090A15"/>
<path d="M47.7 85.6938C47.619 85.6134 47.5121 85.5686 47.3984 85.5686C47.2843 85.5686 47.1778 85.6134 47.0965 85.6945L45.2759 87.5151C45.1094 87.6815 45.1094 87.9519 45.2759 88.1186L47.1037 89.9481C47.1861 90.0286 47.2929 90.0736 47.4067 90.0736C47.5207 90.0736 47.629 90.0294 47.7086 89.9481L49.5305 88.127C49.697 87.9611 49.697 87.69 49.5305 87.5235L47.7 85.6938ZM88.1459 9.93212C88.2255 10.0133 88.3337 10.0574 88.4474 10.0574C88.5615 10.0574 88.6698 10.0133 88.7494 9.93212L90.5696 8.11089C90.7364 7.9451 90.7364 7.67402 90.5696 7.50737L88.7408 5.67856C88.6594 5.59722 88.5529 5.55241 88.4388 5.55241C88.3251 5.55241 88.2182 5.59722 88.1372 5.67856L86.3153 7.49824C86.1488 7.66541 86.1488 7.93649 86.3153 8.10245L88.1459 9.93212ZM8.25707 10.4352C8.35565 10.5356 8.48938 10.5901 8.63035 10.5901C8.77132 10.5901 8.90505 10.5356 9.00363 10.4352L11.2543 8.18327C11.4604 7.97819 11.4604 7.643 11.2543 7.43706L8.99294 5.17569C8.89264 5.07522 8.76063 5.0199 8.61966 5.0199C8.47904 5.0199 8.34703 5.07522 8.24673 5.17569L5.99398 7.42569C5.78786 7.63249 5.78786 7.96785 5.99398 8.17276L8.25707 10.4352ZM6.88391 87.1556C6.0798 87.1556 5.42493 87.8096 5.42493 88.6146C5.42493 89.4194 6.0798 90.0736 6.88391 90.0736C7.69526 90.0736 8.35427 89.4194 8.35427 88.6146C8.35427 87.8096 7.69526 87.1556 6.88391 87.1556ZM22.261 82.6645C21.0526 82.6645 20.0692 83.6472 20.0692 84.8563C20.0692 86.0654 21.0526 87.048 22.261 87.048C23.4797 87.048 24.4696 86.0654 24.4696 84.8563C24.4696 83.6472 23.4797 82.6645 22.261 82.6645ZM74.9698 9.26381C75.7812 9.26381 76.4402 8.60997 76.4402 7.80482C76.4402 7.00002 75.7812 6.34601 74.9698 6.34601C74.1657 6.34601 73.5109 7.00002 73.5109 7.80482C73.5109 8.60997 74.1657 9.26381 74.9698 9.26381Z" fill="#090A15"/>
</svg>
