<svg width="96" height="96" viewBox="0 0 96 96" fill="none" xmlns="http://www.w3.org/2000/svg">
<path d="M92.4706 84.1412C91.7647 85.8353 90.3529 87.1059 88.6588 87.8118C88.0941 87.9529 87.6706 88.0941 87.1059 88.0941C86.8235 88.0941 86.5412 88.2353 86.4 88.2353C85.4118 88.2353 84.4235 88.0941 83.4353 87.6706C83.0118 87.5294 82.7294 87.2471 82.3059 86.9647L63.6706 72.2824C63.5294 72.1412 63.3882 72 63.2471 72C62.9647 71.5765 62.6824 71.2941 62.6824 70.4471C62.6824 68.7529 63.8118 66.4941 65.3647 65.6471C66.0706 65.2235 66.7765 65.2235 67.2 65.3647H67.3412L89.0824 74.9647C90.7765 75.6706 92.0471 77.0824 92.7529 78.9176C93.3176 80.6118 93.3176 82.5882 92.4706 84.1412Z" fill="#1E54CD"/>
<path d="M91.4824 79.2C90.7765 77.3647 89.5059 75.953 87.6706 75.1059L66.4941 65.7882C66.3529 65.2235 65.9294 64.8 65.5059 64.5177L64.5177 63.953C65.3647 62.4 65.7882 60.8471 65.7882 59.153V52.8C65.7882 48.5647 62.9647 44.4706 57.7412 41.5059C56.6118 40.8 55.3412 40.2353 54.2118 39.8118C53.5059 33.3177 52.0941 29.3647 49.8353 27.8118H49.6941C49.5529 27.8118 49.5529 27.8118 49.4118 27.8118C49.4118 27.6706 49.4118 27.6706 49.4118 27.5294C49.6941 25.9765 49.8353 24.4235 49.8353 23.0118C49.8353 22.1647 49.6941 21.3177 49.6941 20.4706C49.6941 20.3294 49.6941 20.3294 49.6941 20.1883C49.8353 20.0471 49.9765 20.0471 50.2588 19.9059C50.6824 19.6235 50.9647 19.2 51.1059 18.7765C51.5294 16.8 51.2471 14.9647 50.1176 12.9882C50.1176 12.8471 45.6 4.80001 36.2824 8.75296C26.9647 12.7059 31.3412 23.8588 31.3412 24C31.4824 24.5647 31.6235 24.9883 31.9059 25.553C32.7529 27.2471 33.7412 28.6588 35.0118 30.0706L34.7294 31.6235C34.5882 31.9059 34.0235 32.4706 33.7412 33.4588C31.4824 34.8706 29.3647 36.5647 27.5294 38.2588C27.3882 38.4 27.1059 38.5412 26.9647 38.8235C24.4235 39.5294 21.8824 40.5177 19.7647 41.7882C14.6824 44.753 11.8588 48.7059 11.8588 52.9412V59.2941C11.8588 63.5294 14.6824 67.6235 19.9059 70.5883C24.9882 73.4118 31.9059 74.8235 38.8235 74.8235C45.3176 74.8235 51.6706 73.553 56.7529 70.8706C56.8941 71.153 57.1765 71.4353 57.4588 71.5765L60.2824 73.2706C60.5647 73.4118 60.9882 73.553 61.2706 73.553C61.5529 73.553 61.8353 73.553 62.2588 73.4118L80.4706 87.8118C80.6118 87.953 80.7529 87.953 80.8941 88.0941C81.1765 88.2353 81.3176 88.3765 81.6 88.5177C82.5882 88.9412 83.5765 89.2235 84.5647 89.2235C84.8471 89.2235 85.1294 89.2235 85.4118 89.0824C85.9765 89.0824 86.5412 88.9412 87.1059 88.6588C88.9412 87.953 90.3529 86.5412 91.2 84.8471C92.0471 83.0118 92.1882 81.0353 91.4824 79.2ZM61.8353 54.6353C60.7059 52.2353 58.5882 50.1177 55.4824 48.2824C55.2 48.1412 54.7765 48 54.4941 47.7177C54.4941 45.8824 54.3529 44.3294 54.3529 42.7765C54.6353 42.9177 54.9176 43.0588 55.2 43.2C59.5765 45.7412 61.9765 49.1294 61.9765 52.6588C62.1177 53.5059 62.1176 54.0706 61.8353 54.6353ZM15.5294 52.8C15.5294 52.3765 15.5294 51.953 15.6706 51.5294C15.8118 50.9647 15.9529 50.4 16.2353 49.8353C16.3765 49.553 16.5177 49.2706 16.6588 48.9883C16.9412 48.5647 17.0824 48.1412 17.3647 47.7177C18.4941 46.1647 20.1882 44.6118 22.3059 43.4824C23.2941 42.9177 24.4235 42.353 25.6941 41.9294C25.4118 43.3412 25.1294 45.1765 24.9882 47.153C24 47.5765 23.0118 48 22.0235 48.5647C19.0588 50.2588 16.9412 52.3765 15.8118 54.6353C15.5294 53.9294 15.5294 53.3647 15.5294 52.8ZM22.1647 48.9883C23.0118 48.5647 23.8588 48.1412 24.7059 47.7177C24.5647 51.1059 24.5647 55.0588 24.5647 59.5765C24.9882 62.2588 27.9529 63.8118 32.6118 63.8118C33.7412 63.8118 34.8706 63.6706 36.1412 63.5294C45.3176 62.4 55.0588 57.1765 54.6353 51.8118C54.6353 50.6824 54.6353 49.6941 54.6353 48.5647C54.9177 48.7059 55.0588 48.8471 55.3412 48.8471C58.5882 50.6824 60.7059 53.0824 61.6941 55.4824C60.7059 57.8824 58.7294 60.1412 55.4824 61.9765C46.4471 67.2 31.4824 67.2 22.3059 61.9765C19.0588 60.1412 16.9412 57.7412 15.9529 55.3412C16.9412 53.0824 19.0588 50.8235 22.1647 48.9883ZM32.3294 25.1294C32.1882 24.7059 32.0471 24.1412 31.9059 23.7177C32.4706 23.0118 33.1765 22.8706 33.7412 23.0118C34.5882 23.2941 35.0118 24.5647 34.8706 25.9765C34.8706 26.2588 35.0118 26.4 35.1529 26.6824C35.2941 26.8235 35.5765 26.9647 35.8588 26.9647C36.2824 26.9647 36.5647 26.6824 36.7059 26.2588L37.4118 23.4353C37.9765 21.8824 38.6824 21.0353 39.3882 20.753C39.8118 20.6118 40.3765 20.753 40.9412 21.0353C41.5059 21.3177 41.9294 21.4588 42.3529 21.6C44.6118 22.0235 46.8706 21.6 49.1294 20.3294C49.2706 21.1765 49.2706 21.8824 49.2706 22.7294C49.2706 24.2824 49.1294 25.6941 48.8471 27.2471C48.8471 27.3882 48.8471 27.5294 48.8471 27.5294C48.8471 27.8118 48.7059 27.953 48.7059 28.0941C48.4235 29.3647 48 30.6353 47.5765 31.9059C47.4353 32.1883 47.2941 32.4706 47.1529 32.753C47.0118 32.8941 46.8706 33.1765 46.7294 33.3177C46.7294 33.3177 46.7294 33.4588 46.5882 33.4588C46.1647 33.8824 45.7412 34.3059 45.1765 34.3059C45.0353 34.3059 44.8941 34.3059 44.7529 34.3059H44.6118C44.4706 34.3059 44.3294 34.3059 44.0471 34.3059H43.9059C43.6235 34.3059 43.4824 34.3059 43.3412 34.1647C41.2235 33.4588 39.2471 32.4706 37.5529 31.2C37.4118 31.0588 37.1294 30.9177 36.9882 30.7765C36.4235 30.353 35.8588 29.9294 35.4353 29.3647C35.2941 29.2235 35.0118 28.9412 34.8706 28.8C34.0235 27.8118 33.0353 26.5412 32.3294 25.1294ZM46.3059 38.5412L45.4588 38.1177L43.7647 37.2706C44.0471 36.7059 44.3294 36 44.6118 35.153C44.8941 35.153 45.0353 35.153 45.3176 35.153C45.8824 35.153 46.3059 34.8706 46.7294 34.4471C47.0118 35.8588 46.7294 37.2706 46.3059 38.5412ZM34.1647 33.6C34.4471 33.4588 34.7294 33.1765 35.1529 33.0353C35.2941 33.3177 35.4353 33.4588 35.5765 33.6C36.7059 35.153 38.4 36.2824 40.9412 36.9883C41.6471 37.1294 42.3529 37.4118 43.0588 37.553V37.6941L41.9294 40.0941C39.6706 39.6706 37.8353 38.9647 36.4235 37.9765C35.4353 37.2706 34.5882 36.2824 34.4471 35.153C34.0235 34.5882 34.0235 34.0235 34.1647 33.6ZM36.5647 31.3412C36.7059 31.4824 36.9882 31.6235 37.1294 31.7647C38.9647 33.1765 41.0824 34.3059 43.3412 35.0118C43.4824 35.0118 43.6235 35.0118 43.9059 35.153C43.6235 35.8588 43.3412 36.4235 43.2 36.8471C43.2 36.9883 43.2 36.9883 43.0588 36.9883C38.5412 36.1412 35.8588 34.3059 35.0118 31.4824L35.2941 30.353C35.7177 30.7765 36.1412 31.0588 36.5647 31.3412ZM34.5882 32.4706C34.5882 32.3294 34.7294 32.3294 34.7294 32.1882C34.7294 32.3294 34.7294 32.3294 34.8706 32.4706C34.7294 32.6118 34.5882 32.6118 34.5882 32.753C34.4471 32.6118 34.5882 32.4706 34.5882 32.4706ZM33.4588 34.0235C33.4588 34.4471 33.4588 34.8706 33.6 35.2941C33.8824 36.5647 34.7294 37.6941 35.8588 38.5412C37.4118 39.5294 39.3882 40.3765 41.7882 40.8C42.4941 41.2235 43.2 41.6471 43.9059 41.7882C44.6118 42.0706 45.7412 46.5882 45.0353 55.9059C45.0353 56.0471 45.0353 56.0471 45.0353 56.1883L46.3059 57.8824C46.3059 58.0235 46.4471 58.0235 46.5882 58.0235C46.7294 58.0235 46.7294 57.8824 46.8706 57.8824L48 55.4824V55.3412C48 50.4 47.1529 45.6 45.6 41.0824C46.0235 40.5177 46.4471 39.953 46.5882 39.2471C47.1529 37.553 47.4353 35.7177 47.1529 33.7412C47.4353 33.3177 47.7177 32.753 47.8588 32.3294C48.2824 31.0588 48.7059 29.7882 48.9882 28.3765C49.1294 28.3765 49.1294 28.3765 49.2706 28.3765C52.3765 30.6353 53.9294 38.2588 53.6471 51.8118C54.0706 56.8941 44.6118 61.6941 35.7177 62.8235C29.3647 63.6706 25.4118 62.4 24.8471 59.4353C24.7059 49.2706 24.8471 40.6588 27.3882 38.5412C29.5059 36.9882 31.4824 35.4353 33.4588 34.0235ZM20.0471 42.0706C22.0235 40.9412 24.1412 40.0941 26.4 39.3882C26.1177 39.8118 25.9765 40.3765 25.6941 40.9412C24.2824 41.5059 23.0118 42.0706 21.8824 42.7765C17.3647 45.4588 14.8235 48.9883 14.8235 52.6588C14.8235 53.9294 15.1059 55.2 15.6706 56.3294C16.8 58.7294 18.9177 60.8471 22.0235 62.6824C26.6824 65.3647 32.7529 66.7765 38.9647 66.7765C45.1765 66.7765 51.2471 65.3647 55.7647 62.6824C58.7294 60.9883 60.8471 58.8706 61.9765 56.6118C62.5412 55.3412 62.8235 54.2118 62.8235 52.8C62.8235 51.1059 62.2588 49.553 61.4118 48C61.1294 47.5765 60.8471 47.153 60.5647 46.7294C59.4353 45.3177 57.7412 43.9059 55.7647 42.7765C55.3412 42.4941 54.9176 42.353 54.4941 42.2118C54.4941 41.6471 54.3529 41.0824 54.3529 40.5177C55.4824 40.9412 56.6118 41.5059 57.6 42.0706C62.5412 44.8941 65.3647 48.7059 65.3647 52.8C65.3647 53.2235 65.3647 53.5059 65.2235 53.9294C65.2235 54.0706 65.2235 54.2118 65.2235 54.353C64.6588 57.7412 61.9765 60.9883 57.7412 63.5294C47.4353 69.4588 30.6353 69.4588 20.1882 63.5294C15.3882 60.7059 12.7059 57.0353 12.5647 53.2235C12.5647 53.0824 12.5647 52.9412 12.5647 52.8C12.4235 48.7059 15.1059 45.0353 20.0471 42.0706ZM57.8824 71.0118C57.3176 70.7294 57.0353 70.0235 57.0353 69.1765C57.0353 67.0588 58.4471 64.6588 60.2824 63.6706C60.7059 63.3882 61.2706 63.2471 61.6941 63.2471C61.9765 63.2471 62.2588 63.2471 62.4 63.3883L63.8118 64.2353L63.6706 64.3765H63.5294H63.3882C63.2471 64.5177 63.1059 64.5177 62.8235 64.6588C62.6824 64.8 62.5412 64.8 62.4 64.9412C62.2588 65.0824 62.1177 65.0824 61.9765 65.2235C61.8353 65.3647 61.6941 65.5059 61.5529 65.5059C61.4118 65.6471 61.2706 65.7883 61.1294 65.9294C60.9882 66.0706 60.9882 66.2118 60.8471 66.2118C60.7059 66.4941 60.5647 66.6353 60.4235 66.9177L60.2824 67.0588C59.8588 67.7647 59.5765 68.3294 59.4353 69.0353V69.1765C59.4353 69.3177 59.2941 69.4588 59.2941 69.7412C59.2941 69.8824 59.2941 70.0235 59.2941 70.3059C59.2941 70.4471 59.2941 70.4471 59.2941 70.5883C59.2941 70.8706 59.2941 71.153 59.4353 71.4353C59.4353 71.4353 59.4353 71.4353 59.4353 71.5765C59.4353 71.7177 59.4353 71.7177 59.4353 71.8588L57.8824 71.0118ZM60.7059 72.7059C60.1412 72.4235 59.8588 71.7177 59.8588 70.8706C59.8588 70.5883 59.8588 70.1647 60 69.8824V69.7412C60.1412 69.4588 60.1412 69.0353 60.2824 68.753C60.4235 68.6118 60.4235 68.3294 60.5647 68.1883C60.5647 68.1883 60.5647 68.0471 60.7059 68.0471C60.8471 67.9059 60.8471 67.7647 60.9882 67.6235C61.1294 67.4824 61.1294 67.3412 61.2706 67.2C61.4118 66.9177 61.6941 66.7765 61.8353 66.4941C61.9765 66.353 61.9765 66.353 62.1177 66.2118C62.2588 66.0706 62.4 65.9294 62.6824 65.7882C62.8235 65.6471 62.9647 65.5059 63.2471 65.5059C63.3882 65.3647 63.5294 65.3647 63.6706 65.2235C63.8118 65.2235 63.8118 65.0824 63.9529 65.0824C64.0941 65.0824 64.0941 65.0824 64.2353 65.0824C64.3765 65.0824 64.5177 65.0824 64.6588 65.0824C64.8 65.0824 64.8 65.0824 64.9412 65.0824C65.0824 65.0824 65.2235 65.0824 65.3647 65.2235C65.5059 65.3647 65.6471 65.5059 65.7882 65.6471C65.2235 65.5059 64.5177 65.6471 63.8118 66.0706C62.1177 67.0588 60.8471 69.3177 60.9882 71.153C60.9882 72 61.1294 72.4235 61.5529 72.8471C61.6941 72.9883 61.6941 72.9883 61.8353 73.1294C61.4118 72.9883 60.9882 72.8471 60.7059 72.7059ZM90.6353 84.4235C89.9294 85.9765 88.6588 87.2471 86.9647 87.953C86.4 88.0941 85.9765 88.2353 85.4118 88.2353C85.1294 88.2353 84.9882 88.3765 84.7059 88.3765C83.7177 88.3765 82.7294 88.2353 81.8824 87.8118C81.6 87.6706 81.4588 87.5294 81.1765 87.3883C81.0353 87.2471 80.8941 87.2471 80.7529 87.1059L62.8235 72.9883L62.2588 72.5647L62.1177 72.4235C61.9765 72.2824 61.8353 72.2824 61.8353 72.1412C61.5529 71.8588 61.4118 71.5765 61.4118 70.8706C61.4118 69.1765 62.5412 67.2 63.9529 66.353C64.3765 66.0706 64.8 66.0706 65.0824 66.0706C65.2235 66.0706 65.3647 66.0706 65.5059 66.2118L65.9294 66.353L66.6353 66.6353L87.3882 75.8118C88.9412 76.5177 90.2118 77.9294 90.7765 79.4824C91.4824 81.0353 91.4824 82.8706 90.6353 84.4235ZM77.7882 39.5294C77.9294 39.5294 77.9294 39.5294 78.0706 39.5294L85.2706 35.2941C85.4118 35.2941 85.4118 35.153 85.4118 35.153V27.3883C85.4118 27.2471 85.4118 27.2471 85.2706 27.2471L77.9294 23.0118C77.7882 23.0118 77.7882 23.0118 77.6471 23.0118L70.4471 27.2471C70.4471 27.2471 70.4471 27.2471 70.4471 27.3883C70.4471 27.3883 70.4471 27.3883 70.4471 27.5294V35.2941C70.4471 35.4353 70.4471 35.4353 70.5882 35.5765L77.7882 39.5294ZM78.2118 38.8235V38.1177V31.6235L83.4353 28.5177L84.9882 27.6706V34.8706L78.2118 38.8235ZM77.9294 23.4353L84.7059 27.3883L81.6 29.2235L77.9294 31.3412L71.1529 27.3883L77.9294 23.4353ZM17.3647 18.6353V11.2941C17.3647 11.153 17.3647 11.0118 17.2235 11.0118L10.1647 7.05884C10.0235 7.05884 9.88236 7.05884 9.88236 7.05884L2.96471 11.0118C2.96471 11.0118 2.82353 11.0118 2.82353 11.153C2.82353 11.153 2.82353 11.153 2.82353 11.2941V18.6353C2.82353 18.7765 2.82353 18.9177 2.96471 18.9177L9.88236 23.0118H10.0235H10.1647L17.0824 19.0588C17.2235 18.9177 17.3647 18.7765 17.3647 18.6353ZM10.0235 7.62354L16.3765 11.2941L10.1647 14.9647L3.81177 11.2941L10.0235 7.62354ZM16.6588 18.4941L10.4471 22.1647V20.3294V15.5294L16.6588 11.8588V18.4941ZM65.7882 19.4824C67.0588 19.4824 68.0471 18.4941 68.0471 17.3647C68.0471 16.2353 67.0588 15.2471 65.7882 15.2471C64.6588 15.2471 63.6706 16.2353 63.6706 17.3647C63.5294 18.4941 64.5177 19.4824 65.7882 19.4824ZM81.4588 56.3294C81.3176 56.3294 81.3176 56.3294 81.1765 56.4706L79.4824 58.1647C79.3412 58.3059 79.3412 58.5882 79.4824 58.7294L81.1765 60.4235C81.3176 60.5647 81.3176 60.5647 81.4588 60.5647C81.6 60.5647 81.6 60.5647 81.7412 60.4235L83.4353 58.7294C83.5765 58.5882 83.5765 58.3059 83.4353 58.1647L81.7412 56.4706C81.7412 56.3294 81.6 56.3294 81.4588 56.3294ZM41.6471 78.6353C41.5059 78.4941 41.5059 78.4941 41.3647 78.4941C41.2235 78.4941 41.2235 78.4941 41.0824 78.6353L39.3882 80.3294C39.2471 80.4706 39.2471 80.753 39.3882 80.8941L41.0824 82.5882C41.2235 82.7294 41.2235 82.7294 41.3647 82.7294C41.5059 82.7294 41.5059 82.7294 41.6471 82.5882L43.3412 80.8941C43.4824 80.753 43.4824 80.4706 43.3412 80.3294L41.6471 78.6353ZM86.9647 13.9765C87.1059 14.1177 87.1059 14.1177 87.2471 14.1177C87.3882 14.1177 87.3882 14.1177 87.5294 13.9765L89.2235 12.2824C89.3647 12.1412 89.3647 11.8588 89.2235 11.7177L87.5294 10.0235C87.3882 9.88237 87.3882 9.88237 87.2471 9.88237C87.1059 9.88237 87.1059 9.88237 86.9647 10.0235L85.2706 11.7177C85.1294 11.8588 85.1294 12.1412 85.2706 12.2824L86.9647 13.9765ZM16.0941 31.6235L18.2118 33.7412C18.3529 33.8824 18.4941 33.8824 18.4941 33.8824C18.6353 33.8824 18.7765 33.8824 18.7765 33.7412L20.8941 31.6235C21.0353 31.4824 21.0353 31.0588 20.8941 30.9177L18.7765 28.8C18.6353 28.6588 18.4941 28.6588 18.4941 28.6588C18.3529 28.6588 18.2118 28.6588 18.2118 28.8L16.0941 30.9177C15.8118 31.0588 15.8118 31.3412 16.0941 31.6235ZM17.2235 81.8824C16.5176 81.8824 15.8118 82.4471 15.8118 83.2941C15.8118 84 16.3765 84.7059 17.2235 84.7059C17.9294 84.7059 18.6353 84.1412 18.6353 83.2941C18.6353 82.4471 18.0706 81.8824 17.2235 81.8824Z" fill="#090A15"/>
<path d="M64.3765 83.153C63.6706 83.153 62.9647 83.7177 62.9647 84.5647C62.9647 85.2706 63.5294 85.9765 64.3765 85.9765C65.0824 85.9765 65.7882 85.4118 65.7882 84.5647C65.7882 83.8588 65.0824 83.153 64.3765 83.153Z" fill="#090A15"/>
</svg>
