<svg width="96" height="96" viewBox="0 0 96 96" fill="none" xmlns="http://www.w3.org/2000/svg">
<path d="M87.7515 25.0305L82.6588 33.7779C82.6552 33.7786 82.6552 33.7786 82.6552 33.7786C83.0074 28.9605 77.203 24.9408 71.5891 26.5048L76.6579 17.7512C79.9858 12.6798 91.0794 19.9591 87.7515 25.0305Z" fill="#1E54CD"/>
<path d="M77.0082 66.4258L64.9293 59.4666L66.8767 58.2599C66.8829 58.2561 66.8829 58.2466 66.8888 58.2423C66.9291 58.2141 66.9684 58.1832 66.9953 58.1386C69.0771 54.5936 59.4537 70.9804 87.3556 23.469C89.1933 20.6538 87.0081 17.3877 84.1956 15.543C81.3831 13.697 77.5132 12.9952 75.6547 15.827C50.2024 59.3887 58.981 44.3642 57.0819 47.6145L57.1874 14.3034C57.2316 8.056 50.4865 0.481469 46.1755 2.92466L7.91657 25.0893C6.66025 25.8093 5.9261 27.3622 5.9261 29.3529L5.91197 34.0681C5.891 35.9119 7.84679 38.2743 9.32833 37.5836C9.48938 37.5836 10.8741 36.7103 14.6931 34.4917L14.5942 70.8164C14.5942 75.6134 17.893 81.4172 22.1331 83.8611L38.3967 93.2493C38.8935 93.5518 39.4935 93.6693 40.0059 93.3764C40.173 93.2809 78.0903 71.3053 78.2508 71.2117C79.7059 70.3667 78.6918 67.4096 77.0082 66.4258ZM61.9507 60.4813C61.1031 58.5036 58.1424 56.3048 55.7018 56.3098L56.0658 50.8407C57.8506 49.8286 59.573 49.7443 61.5605 50.3753C62.9309 50.8137 64.0711 51.4975 64.9479 52.4074C66.4282 53.9518 66.7281 55.6354 66.3645 57.7467L61.9507 60.4813ZM83.8082 16.1331C86.3395 17.793 88.3413 20.6786 86.76 23.0899C86.7558 23.094 86.7531 23.0995 86.7503 23.105L82.2707 30.797C81.662 26.3308 76.4476 23.3224 71.6059 24.23L76.2558 16.1965C77.8413 13.7852 81.2811 14.4745 83.8082 16.1331ZM71.1189 25.0693C76.5602 23.6391 81.8698 27.5287 81.6068 31.936L67.2172 56.3697C67.2458 54.6831 66.7143 53.2302 65.4567 51.918C64.4971 50.9226 63.259 50.1767 61.7756 49.7025C60.2173 49.2083 58.6188 49.0867 57.0757 49.6066L57.0774 49.0167L71.1189 25.0693ZM10.1331 36.3269C10.1648 36.169 10.1488 35.7195 10.1614 31.3857C10.1614 30.0019 11.0448 29.5153 12.2649 30.1999C12.9001 30.567 13.5071 31.2165 13.9872 32.0211C14.3119 32.5859 14.5377 33.1646 14.6366 33.7152L10.1331 36.3269ZM77.8978 70.5905L40.6836 92.1623V92.0809C40.7676 90.7365 39.8116 89.2023 38.7638 88.5905L22.4861 79.1882C20.5029 78.0507 18.8295 75.2057 18.8295 72.8494L18.9284 36.4682C18.9284 36.4679 18.9284 36.4684 18.9284 36.4682V36.4541C18.9284 36.4477 18.927 36.4406 18.927 36.4344C18.9613 31.6594 14.9073 25.6839 10.6925 24.7533C10.484 24.7067 10.2786 24.6729 10.0766 24.6516L46.5143 3.54576C50.1345 1.47054 56.4815 8.29183 56.4815 14.2894L56.3729 48.8232L55.4227 50.4442C55.4199 50.4492 55.422 50.4552 55.4192 50.4604C55.3971 50.5035 55.3785 50.549 55.3758 50.5986L54.5417 63.1294C54.4614 64.3397 55.7761 65.1324 56.8137 64.4957L64.2534 59.8855L76.6553 67.0469C78.1999 67.919 78.6038 70.2139 77.8978 70.5905Z" fill="#090A15"/>
<path d="M49.9245 9.33899C49.8238 9.16803 49.6074 9.11289 49.4419 9.20939L19.6115 26.4883C19.4419 26.5862 19.3854 26.8027 19.4819 26.9709C19.5815 27.141 19.7974 27.1965 19.9645 27.1005L49.7949 9.82153C49.9645 9.72364 50.021 9.50719 49.9245 9.33899ZM42.9346 41.6345L52.4833 36.0977C52.6529 36.0012 52.7094 35.7848 52.6115 35.6166C52.5136 35.447 52.2958 35.3891 52.1304 35.4883L42.5816 41.0251C42.4121 41.1216 42.3555 41.3381 42.4534 41.5063C42.5182 41.6193 42.6368 41.6827 42.7581 41.6827C42.8188 41.6827 42.8794 41.6676 42.9346 41.6345ZM31.1083 61.9989C31.1731 62.112 31.2917 62.1754 31.413 62.1754C31.4736 62.1754 31.5343 62.1602 31.5895 62.1271L52.4419 50.0389C52.6115 49.9424 52.668 49.7259 52.5702 49.5577C52.4723 49.3868 52.2544 49.3289 52.089 49.4295L31.2365 61.5178C31.0669 61.6143 31.0104 61.8307 31.1083 61.9989ZM27.7926 63.5141L23.2595 66.1418C23.0899 66.2383 23.0334 66.4548 23.1313 66.623C23.1961 66.736 23.3146 66.7995 23.436 66.7995C23.4966 66.7995 23.5573 66.7843 23.6124 66.7512L28.1455 64.1235C28.3151 64.027 28.3716 63.8105 28.2737 63.6423C28.1759 63.4727 27.9566 63.4148 27.7926 63.5141ZM42.5348 69.2921C42.4369 69.1225 42.2177 69.0646 42.0536 69.1639L28.8114 76.8418C28.6418 76.9383 28.5853 77.1547 28.6832 77.3229C28.7816 77.4946 29.0015 77.5488 29.1644 77.4511L42.4066 69.7733C42.5761 69.6768 42.6327 69.4603 42.5348 69.2921ZM39.6878 29.1878C39.7874 29.358 40.0033 29.4134 40.1703 29.3174L52.5371 22.1565C52.7066 22.0587 52.7632 21.8422 52.6667 21.674C52.566 21.5044 52.3496 21.4479 52.1841 21.5444L39.8174 28.7053C39.6478 28.8031 39.5913 29.0196 39.6878 29.1878ZM24.5375 53.6069L35.356 47.3615C36.3583 46.7811 37.14 45.4272 37.1359 44.276L37.0973 30.2797C37.0944 28.9976 36.0956 28.3974 34.9534 29.0554L24.135 35.3008C23.1327 35.8799 22.3509 37.2338 22.3537 38.3863L22.3937 52.3826C22.3965 53.667 23.4088 54.2569 24.5375 53.6069ZM23.0996 52.3799L23.0596 38.3836C23.0568 37.4929 23.7117 36.361 24.4879 35.913L35.3064 29.6676C35.9438 29.2983 36.3884 29.5143 36.3914 30.2825L36.43 44.2788C36.4341 45.1694 35.7806 46.3013 35.0031 46.7494L24.1846 52.9948C23.5527 53.365 23.1025 53.139 23.0996 52.3799Z" fill="#090A15"/>
<path d="M29.7297 41.0341C27.0847 42.5613 24.9536 46.267 24.9622 49.2923L34.5288 43.769C34.5202 40.7437 32.3626 39.5141 29.7297 41.0341ZM29.7265 39.8553C30.8019 39.2344 31.6643 37.7406 31.6608 36.5049C31.6574 35.2834 30.7892 34.7888 29.7138 35.4098C28.6384 36.0305 27.7761 37.5243 27.7795 38.7458C27.783 39.9814 28.6512 40.4761 29.7265 39.8553ZM51.8229 64.2792C51.134 64.1216 50.4473 63.939 49.7963 64.202C49.3399 64.3868 49.0656 64.6763 48.9057 65.1395C48.7747 65.5201 48.4217 65.8041 48.0013 65.8785C48.0081 65.7186 48.0095 65.5545 48.0054 65.3836C47.9916 64.7135 47.9047 63.7388 47.3023 63.0053C46.5413 62.0831 45.0206 62.3373 44.9626 64.6322C44.9389 65.6822 45.2709 65.9196 45.8409 66.2328C45.9825 66.2879 46.2433 66.5768 47.2182 66.6133C47.1575 66.947 47.0665 67.2475 46.9424 67.5164C46.6322 68.1837 46.0918 68.6717 45.4948 68.8234C45.3059 68.8702 45.1915 69.0632 45.2398 69.2521C45.2893 69.4504 45.4959 69.5565 45.6685 69.5072C46.4682 69.3045 47.1851 68.6717 47.5821 67.8128C47.7503 67.4516 47.8675 67.049 47.9351 66.5982C48.6837 66.5389 49.3386 66.0508 49.5729 65.3698C49.8408 64.5892 50.7121 64.7506 51.4576 64.9203C51.5993 64.9303 52.9769 65.4032 53.749 64.5922C53.8841 64.4502 53.8785 64.2269 53.7379 64.0931C53.5973 63.9566 53.374 63.9649 53.2388 64.1042C52.981 64.3702 52.5068 64.4309 51.8229 64.2792ZM47.294 65.9088C46.4697 65.8894 46.3282 65.6695 46.18 65.6138C45.7896 65.4013 45.6536 65.3677 45.6685 64.6487C45.6754 64.3744 45.6878 64.1 45.7306 63.8284C45.7898 63.4497 46.3103 62.9048 46.7563 63.4548C47.1092 63.8836 47.2816 64.4998 47.2995 65.3974C47.3036 65.5752 47.3009 65.7462 47.294 65.9088ZM66.2853 66.0936L36.765 83.2098C36.5955 83.3064 36.5389 83.5228 36.6368 83.691C36.7352 83.8627 36.9551 83.9169 37.118 83.8192L66.6382 66.703C66.8078 66.6064 66.8643 66.39 66.7664 66.2218C66.6685 66.0508 66.4493 65.9929 66.2853 66.0936ZM86.4119 40.3616C86.3305 40.2813 86.2237 40.2365 86.1099 40.2365C85.9962 40.2365 85.8894 40.2813 85.8083 40.3623L83.9878 42.1829C83.8213 42.3493 83.8213 42.6199 83.9878 42.7864L85.8152 44.6162C85.898 44.6965 86.0045 44.7413 86.1186 44.7413C86.2323 44.7413 86.3405 44.6972 86.4201 44.6162L88.2421 42.795C88.4089 42.6292 88.4089 42.3579 88.2421 42.1915L86.4119 40.3616ZM7.74321 63.1856C7.85695 63.1856 7.96517 63.1415 8.04514 63.0603L9.86706 61.2391C10.0335 61.0733 10.0335 60.8022 9.86706 60.6356L8.03652 58.8059C7.95552 58.7256 7.84868 58.6806 7.73459 58.6806C7.62085 58.6806 7.514 58.7256 7.43301 58.8066L5.61246 60.6271C5.44599 60.7936 5.44599 61.064 5.61246 61.2306L7.4399 63.0603C7.52262 63.1408 7.62947 63.1856 7.74321 63.1856ZM8.80892 87.1554C8.72793 87.075 8.62108 87.0302 8.50734 87.0302C8.39325 87.0302 8.28675 87.075 8.20541 87.1563L6.38521 88.9767C6.21839 89.1432 6.21839 89.4136 6.38521 89.5802L8.21265 91.4099C8.29537 91.4902 8.40187 91.5352 8.51596 91.5352C8.6297 91.5352 8.73792 91.491 8.81754 91.4099L10.6395 89.5886C10.8059 89.4229 10.8059 89.1518 10.6395 88.9851L8.80892 87.1554ZM91.0521 6.78844L89.2233 4.95945C89.1423 4.87828 89.0355 4.83347 88.9214 4.83347C88.8077 4.83347 88.7008 4.87828 88.6198 4.95945L86.7979 6.77913C86.6314 6.94647 86.6314 7.21755 86.7979 7.38334L88.6281 9.21318C88.7081 9.29418 88.8163 9.3383 88.93 9.3383C89.0438 9.3383 89.152 9.29418 89.2319 9.21318L91.0521 7.39195C91.2186 7.22617 91.2186 6.95491 91.0521 6.78844ZM7.61396 9.5158C7.75493 9.5158 7.88866 9.46117 7.98723 9.36088L10.2379 7.10898C10.444 6.9039 10.444 6.56871 10.2379 6.36277L7.97655 4.10123C7.87625 4.00093 7.74424 3.94543 7.60327 3.94543C7.46265 3.94543 7.33064 4.00093 7.23034 4.10123L4.97758 6.3514C4.77147 6.5582 4.77147 6.89339 4.97758 7.09847L7.24102 9.36088C7.33925 9.46117 7.47333 9.5158 7.61396 9.5158ZM65.6542 12.9811C66.4655 12.9811 67.1245 12.3271 67.1245 11.5221C67.1245 10.7173 66.4655 10.0631 65.6542 10.0631C64.8501 10.0631 64.1952 10.7173 64.1952 11.5221C64.1952 12.3271 64.8501 12.9811 65.6542 12.9811ZM19.4664 13.2551C20.2778 13.2551 20.9368 12.6009 20.9368 11.7961C20.9368 10.9913 20.2778 10.3372 19.4664 10.3372C18.6623 10.3372 18.0075 10.9913 18.0075 11.7961C18.0075 12.6009 18.6623 13.2551 19.4664 13.2551ZM81.6761 85.2606C80.2144 85.2606 79.0242 86.4496 79.0242 87.9125C79.0242 89.3756 80.2144 90.5644 81.6761 90.5644C83.151 90.5644 84.3487 89.3756 84.3487 87.9125C84.3487 86.4496 83.151 85.2606 81.6761 85.2606Z" fill="#090A15"/>
</svg>
